<?xml version="1.0" standalone="no"?>
<!DOCTYPE svg PUBLIC "-//W3C//DTD SVG 20010904//EN"
 "http://www.w3.org/TR/2001/REC-SVG-20010904/DTD/svg10.dtd">
<svg version="1.0" xmlns="http://www.w3.org/2000/svg"
 width="1328.000000pt" height="1328.000000pt" viewBox="0 0 1328.000000 1328.000000"
 preserveAspectRatio="xMidYMid meet">
<metadata>
Created by potrace 1.14, written by Peter Selinger 2001-2017
</metadata>
<g transform="translate(0.000000,1328.000000) scale(0.100000,-0.100000)"
fill="#000000" stroke="none">
<path d="M7305 12150 c-185 -15 -333 -30 -485 -51 -1465 -200 -2932 -894
-4297 -2031 -653 -543 -1325 -1238 -1838 -1898 -49 -63 -134 -171 -188 -240
-256 -325 -362 -549 -449 -947 -22 -97 -22 -113 -26 -1368 -2 -882 0 -1304 8
-1380 45 -452 252 -886 579 -1214 415 -416 988 -631 1576 -590 178 12 344 46
537 110 281 93 509 145 809 185 159 21 593 30 771 15 497 -41 963 -168 1403
-381 145 -71 878 -484 1140 -643 710 -431 1485 -637 2310 -614 335 10 594 45
910 122 918 225 1760 780 2332 1536 400 529 660 1114 787 1774 68 353 77 564
76 1800 0 739 3 1053 11 1085 14 57 6 330 -16 530 -122 1107 -699 2165 -1590
2915 -732 616 -1648 1023 -2700 1199 -402 67 -651 87 -1145 91 -223 2 -454 -1
-515 -5z m1055 -765 c958 -94 1736 -349 2413 -791 499 -327 927 -762 1212
-1233 348 -576 513 -1114 544 -1771 6 -149 5 -181 -8 -215 -14 -35 -16 -182
-22 -1205 -6 -1250 -4 -1198 -59 -1505 -160 -886 -694 -1698 -1456 -2215 -582
-394 -1225 -591 -1934 -591 -381 0 -685 43 -1027 147 -277 84 -597 231 -813
374 -107 71 -967 554 -1140 640 -468 234 -961 383 -1485 450 -695 88 -1404 19
-2080 -205 -298 -98 -521 -111 -780 -44 -439 113 -796 467 -910 903 -45 175
-46 220 -42 1491 3 1085 5 1207 20 1268 47 190 124 359 220 485 491 641 779
975 1231 1427 1289 1288 2697 2127 4130 2460 284 66 678 124 980 145 190 13
815 4 1006 -15z"/>
<path d="M7405 10754 c-1420 -90 -2809 -710 -4145 -1848 -573 -488 -1189
-1139 -1609 -1701 -62 -82 -135 -179 -163 -215 -89 -114 -128 -230 -128 -386
0 -183 62 -334 190 -463 85 -86 155 -131 262 -168 62 -23 90 -26 193 -27 l120
-1 197 68 c881 301 1834 357 2769 162 416 -87 802 -219 1184 -405 168 -81 944
-508 1352 -743 525 -302 1175 -431 1777 -352 506 66 961 255 1381 574 141 107
412 380 521 526 305 408 484 852 545 1350 15 125 15 505 0 645 -110 1002 -718
1876 -1676 2411 -536 298 -1159 481 -1895 554 -147 15 -738 28 -875 19z m1817
-2169 c160 -28 299 -82 435 -171 81 -53 250 -225 308 -313 61 -92 119 -227
148 -340 32 -125 32 -397 0 -522 -29 -113 -87 -248 -148 -340 -58 -88 -227
-260 -308 -313 -206 -135 -426 -195 -671 -183 -483 22 -885 354 -1013 835 -23
86 -26 117 -26 262 0 145 3 176 26 262 115 432 449 744 882 823 96 18 265 18
367 0z"/>
</g>
</svg>
